<?xml version="1.0" standalone="no"?>
<!DOCTYPE svg PUBLIC "-//W3C//DTD SVG 20010904//EN"
 "http://www.w3.org/TR/2001/REC-SVG-20010904/DTD/svg10.dtd">
<svg version="1.0" xmlns="http://www.w3.org/2000/svg"
 width="16.000000pt" height="16.000000pt" viewBox="0 0 16.000000 16.000000"
 preserveAspectRatio="xMidYMid meet">
<metadata>
Created by potrace 1.11, written by Peter Selinger 2001-2013
</metadata>
<g transform="translate(0.000000,16.000000) scale(0.001477,-0.001477)"
fill="#000000" stroke="none">
<path d="M7009 8056 c-2 -2 -52 -7 -111 -10 -59 -4 -117 -9 -130 -11 -13 -2
-59 -9 -103 -15 -44 -6 -91 -13 -105 -16 -24 -4 -35 -6 -105 -20 -233 -46
-540 -168 -735 -292 -355 -225 -592 -587 -649 -989 -9 -69 -7 -420 3 -482 59
-348 228 -608 534 -819 94 -65 321 -177 457 -225 206 -72 494 -140 960 -227
88 -16 171 -32 185 -35 14 -3 50 -10 80 -16 30 -5 64 -12 75 -14 11 -2 31 -6
45 -9 158 -30 160 -31 250 -51 41 -9 98 -23 126 -31 28 -8 60 -16 70 -19 32
-7 190 -62 230 -81 190 -87 275 -245 243 -448 -37 -226 -240 -366 -640 -440
-109 -21 -150 -23 -339 -21 -118 2 -226 5 -240 8 -14 3 -52 8 -85 12 -223 24
-508 106 -720 206 -90 43 -286 158 -305 179 -3 3 -34 28 -69 55 -72 54 -241
220 -285 278 -16 21 -37 37 -49 37 -11 0 -41 -19 -66 -42 -26 -24 -80 -72
-120 -108 -41 -36 -79 -69 -85 -75 -6 -5 -45 -39 -86 -74 -41 -36 -79 -70 -85
-75 -5 -6 -59 -54 -120 -106 -124 -106 -162 -141 -212 -188 -35 -32 -35 -32
-17 -60 39 -61 150 -186 254 -285 370 -355 820 -578 1415 -701 100 -21 249
-44 330 -51 39 -4 81 -8 95 -10 143 -22 596 -22 830 0 633 60 1181 282 1510
614 147 148 240 288 333 501 19 43 61 195 76 270 35 183 33 463 -4 626 -101
442 -440 767 -1015 972 -75 27 -186 62 -215 68 -5 1 -35 9 -66 18 -31 9 -65
18 -75 20 -11 2 -57 13 -104 24 -123 30 -221 51 -340 73 -58 11 -114 22 -125
24 -21 4 -127 23 -310 56 -60 10 -121 21 -135 24 -22 4 -78 14 -165 30 -29 5
-60 11 -100 19 -306 63 -545 194 -606 331 -26 59 -32 87 -31 155 1 128 88 253
222 318 75 36 220 80 294 88 28 4 54 8 57 10 38 22 543 22 611 -1 7 -2 33 -6
58 -9 175 -20 448 -95 613 -170 66 -30 218 -114 256 -143 62 -45 185 -148 229
-192 61 -59 74 -60 131 -7 42 38 58 52 102 91 19 17 97 86 174 154 77 68 169
150 205 181 36 32 83 73 104 91 21 19 62 55 90 81 28 26 54 48 59 48 4 0 7 11
7 24 0 15 -14 36 -37 56 -21 18 -61 52 -88 76 -44 38 -154 121 -251 190 -188
134 -497 288 -754 374 -106 36 -346 99 -435 114 -16 3 -53 10 -82 15 -29 6
-74 13 -100 16 -26 3 -57 8 -68 10 -11 2 -49 7 -85 10 -36 4 -76 9 -90 12 -29
5 -565 14 -571 9z"/>
<path d="M3713 8019 c-224 -41 -416 -125 -605 -265 -154 -114 -328 -292 -459
-469 -48 -65 -89 -113 -90 -105 0 3 -1 170 -2 372 -2 269 -5 370 -14 379 -9 9
-176 12 -684 11 -650 0 -674 -1 -689 -19 -13 -17 -15 -279 -14 -2517 1 -2285
2 -2500 17 -2511 19 -14 1360 -16 1374 -2 4 5 9 567 9 1250 1 683 4 1278 8
1322 15 183 43 306 107 463 125 309 337 530 610 638 153 59 261 79 429 78 155
-2 294 -35 459 -110 84 -39 97 -41 109 -16 8 14 76 266 87 322 4 21 98 377
146 552 22 81 42 156 44 167 2 11 13 53 24 93 42 151 51 191 45 213 -10 41
-210 116 -411 155 -132 25 -359 25 -500 -1z"/>
</g>
</svg>
